# xmcd CD database file
#
# Track frame offsets:
#	150
#	2511
#	29270
#	55475
#	78481
#	112658
#	242582
#
# Disc length: 4218 seconds
#
# Revision: 0
# Processed by: cddbd v1.5.2PL0 Copyright (c) Steve Scherf et al.
# Submitted via: CDex 1.51
#
DISCID=46107807
DTITLE=Dolores Ashcroft Nowicki - Your Unseen Power - 08 - Contact with the Higher Worlds
DYEAR=2006
DGENRE=New Age
TTITLE0=Introduction
TTITLE1=Dreamweaving
TTITLE2=What is initiation?
TTITLE3=The Lords of Light
TTITLE4=Contacts with inner planes teachers
TTITLE5=Pathworking - Hypatia
TTITLE6=Pathworking - Merlin
EXTD=YEAR: 2006
EXTT0=
EXTT1=
EXTT2=
EXTT3=
EXTT4=
EXTT5=
EXTT6=
PLAYORDER=
